# xmcd
#
# Track frame offsets: 
#        151
#        19787
#        34216
#        47416
#        61227
#        76003
#        89809
#        101982
#        116146
#        130165
#        142300
#        155456
#
# Disc length: 2254 seconds
#
# Revision: 0
# Processed by: cddbd v1.5.2PL0 Copyright (c) Steve Scherf et al.
# Submitted via: ExactAudioCopy v0.95a5
#
DISCID=a508cc0c
DTITLE=Jesse McReynolds and Charles Whitstein - A Tribute To Brother Due
DTITLE=ts
DYEAR=2005
DGENRE=Bluegrass
TTITLE0=Gone But Not Forgotten
TTITLE1=Remember Me ( When the Candlelights are Gleaming )
TTITLE2=Rose of My Heart
TTITLE3=Are You Missing Me
TTITLE4=When I Stop Dreaming
TTITLE5=Blues Stay Away From Me
TTITLE6=The White Dove
TTITLE7=Kentucky
TTITLE8=Somebody Loves You Darling
TTITLE9=Thats All I Want From You
TTITLE10=Which One Is to Blame
TTITLE11=What Would You Give
EXTD=
EXTT0=
EXTT1=
EXTT2=
EXTT3=
EXTT4=
EXTT5=
EXTT6=
EXTT7=
EXTT8=
EXTT9=
EXTT10=
EXTT11=
PLAYORDER=
